<?xml version="1.0" standalone="no"?>
<!DOCTYPE svg PUBLIC "-//W3C//DTD SVG 20010904//EN"
 "http://www.w3.org/TR/2001/REC-SVG-20010904/DTD/svg10.dtd">
<svg version="1.0" xmlns="http://www.w3.org/2000/svg"
 width="704.000000pt" height="704.000000pt" viewBox="0 0 704.000000 704.000000"
 preserveAspectRatio="xMidYMid meet">
<metadata>
Created by potrace 1.14, written by Peter Selinger 2001-2017
</metadata>
<g transform="translate(0.000000,704.000000) scale(0.100000,-0.100000)"
fill="#000000" stroke="none">
<path d="M235 6069 c-233 -68 -311 -361 -142 -531 66 -67 124 -91 231 -95 50
-2 96 -5 102 -7 6 -2 16 -1 23 3 7 5 30 5 52 1 22 -4 41 -4 44 0 2 4 25 4 50
0 25 -4 48 -4 50 0 3 4 23 4 45 0 22 -4 42 -4 45 0 3 4 22 4 44 0 22 -4 45 -4
52 1 7 4 17 5 21 3 5 -3 45 -5 91 -4 45 0 91 0 102 0 11 0 38 1 60 1 22 1 49
0 60 -1 81 -6 201 8 246 29 52 25 129 88 129 107 0 7 4 14 10 16 5 2 19 28 29
58 21 57 24 182 5 211 -4 8 -9 19 -10 26 -7 42 -94 131 -164 166 -45 22 -47
22 -595 24 -302 1 -563 -3 -580 -8z"/>
<path d="M2975 6060 c-128 -27 -123 -26 -200 -53 -219 -76 -412 -212 -566
-397 -54 -65 -73 -92 -86 -120 -4 -8 -10 -17 -13 -20 -7 -5 -84 -154 -101
-195 -33 -79 -74 -254 -82 -345 -2 -20 -6 -41 -10 -46 -3 -6 -4 -14 -1 -17 8
-7 11 -107 4 -107 -3 0 -5 -45 -5 -100 0 -55 3 -100 6 -100 3 0 3 -19 0 -42
-4 -24 -4 -62 -1 -86 4 -24 3 -45 0 -47 -4 -3 -4 -22 0 -44 4 -22 4 -45 0 -51
-4 -6 -4 -29 0 -50 4 -21 4 -44 0 -50 -4 -6 -4 -29 0 -51 4 -22 3 -42 -1 -45
-5 -3 -7 -10 -3 -15 3 -5 5 -34 4 -64 0 -30 -1 -63 -1 -72 0 -10 0 -54 0 -98
0 -44 0 -87 0 -95 1 -8 1 -33 0 -55 0 -22 0 -47 0 -55 0 -8 1 -28 0 -45 0 -16
0 -34 0 -40 0 -5 0 -30 0 -55 1 -79 1 -84 0 -125 -1 -22 0 -49 1 -60 1 -11 1
-26 1 -32 0 -7 0 -48 0 -90 0 -43 0 -89 -1 -103 -4 -107 -4 -130 0 -130 3 0 4
-26 2 -57 -1 -32 -2 -74 -2 -93 1 -19 0 -44 0 -55 -1 -11 -1 -24 -1 -30 0 -5
0 -28 0 -50 0 -22 1 -49 1 -60 0 -11 0 -36 -1 -55 0 -19 0 -42 0 -50 1 -8 1
-31 0 -50 0 -19 0 -41 0 -47 1 -7 1 -19 2 -25 0 -7 0 -29 -1 -48 -2 -54 9
-272 15 -300 3 -14 8 -40 11 -59 7 -41 40 -155 56 -191 6 -14 14 -34 18 -45
62 -168 214 -370 375 -500 104 -84 297 -195 340 -195 8 0 16 -4 19 -9 3 -5 16
-11 28 -14 13 -3 59 -14 103 -26 44 -12 103 -25 130 -29 68 -10 2865 -9 2937
1 115 15 301 77 408 135 61 33 170 106 197 131 12 12 25 21 29 21 27 0 274
296 274 329 0 5 3 11 8 13 17 7 113 233 127 298 2 8 8 35 13 60 6 25 14 65 19
90 10 54 11 2865 1 2932 -7 49 -35 172 -45 198 -3 8 -7 21 -9 28 -1 8 -6 21
-10 30 -4 9 -8 22 -9 28 -5 23 -98 201 -121 231 -13 17 -24 36 -24 41 0 6 -3
12 -7 14 -5 2 -26 26 -48 53 -141 176 -336 316 -545 393 -47 17 -98 34 -115
38 -16 4 -32 8 -35 9 -3 1 -21 5 -40 8 -19 4 -48 10 -65 14 -16 4 -673 8
-1460 9 -1359 2 -1434 1 -1520 -16z"/>
<path d="M315 4801 c-3 -6 -12 -8 -20 -5 -8 3 -43 -4 -77 -15 -77 -26 -144
-85 -184 -161 -26 -48 -29 -65 -28 -140 0 -100 23 -157 88 -224 64 -64 125
-89 223 -90 46 -1 83 -3 83 -6 0 -3 24 -4 52 -3 29 1 64 2 78 3 32 1 172 2
185 1 6 0 44 0 85 0 116 0 143 -1 151 -7 4 -2 10 0 14 5 3 6 12 8 20 5 8 -3
43 4 77 15 77 26 144 85 184 161 26 49 29 65 28 140 -1 101 -23 158 -88 224
-64 64 -125 89 -223 90 -46 1 -83 3 -83 6 0 3 -24 4 -52 3 -29 -1 -64 -2 -78
-3 -32 -1 -172 -2 -185 -1 -5 0 -44 0 -85 0 -116 0 -143 1 -151 7 -4 2 -10 0
-14 -5z"/>
</g>
</svg>
