<svg width="600" height="330" viewBox="0 0 600 330" fill="none" xmlns="http://www.w3.org/2000/svg">
<rect width="600" height="330" fill="white"/>
<rect width="600" height="330" fill="#BFE8D3"/>
<mask id="mask0_914_5686" style="mask-type:luminance" maskUnits="userSpaceOnUse" x="0" y="0" width="600" height="330">
<rect width="600" height="330" fill="white"/>
<rect width="600" height="330" stroke="white"/>
</mask>
<g mask="url(#mask0_914_5686)">
<path opacity="0.513091" fill-rule="evenodd" clip-rule="evenodd" d="M-14.5062 377.653C86.0785 441.89 566.794 424.501 613.872 329.303C722.541 109.565 185.371 149.705 37.9474 195.084C-46.8084 221.173 -83.9475 333.306 -14.5062 377.653Z" fill="white"/>
<path fill-rule="evenodd" clip-rule="evenodd" d="M288.152 183.781C303.812 214.75 435.459 198.587 487.312 197.05C505.747 196.504 538.058 190.506 539.191 145.17C544.73 -76.4773 545.342 -27.8427 384.721 -30.7368C367.422 -31.0485 303.03 -31.5395 282.943 -27.8427C280.057 -27.311 278.512 -28.5566 275.704 -27.8427C273.608 0.549835 274.296 29.1123 274.844 51.791C273.608 86.9103 276.478 160.695 288.152 183.781Z" fill="white"/>
<path fill-rule="evenodd" clip-rule="evenodd" d="M336.226 83.6523C336.146 92.9188 337.663 106.767 330.783 106.107C323.592 105.418 316.408 105.778 311.992 105.117C307.577 104.457 305.626 99.1729 305.729 86.9548C305.831 74.7368 307.063 74.7368 315.689 74.7368C324.314 74.7368 336.328 71.7635 336.226 83.6523Z" fill="#DFF3E9"/>
<path fill-rule="evenodd" clip-rule="evenodd" d="M487.048 98.9652C514.068 98.7866 529.756 94.2188 512.479 92.1303C495.2 90.0407 412.371 92.6493 386.937 92.8594C361.506 93.0684 347.518 93.5433 347.723 97.6993C347.936 102.171 393.475 99.7415 428.402 99.627C459.813 99.5251 487.048 98.9652 487.048 98.9652Z" fill="#DFF3E9"/>
<path fill-rule="evenodd" clip-rule="evenodd" d="M445.748 81.9097C452.799 80.8514 456.16 75.9574 446.067 74.855C435.976 73.7535 412.419 74.6465 397.247 75.1707C382.075 75.6949 355.035 78 351.865 78.0942C348.696 78.1894 342.673 83.7679 355.958 84.4414C369.243 85.1149 415.044 81.589 426.103 81.7584C437.161 81.9278 442.781 82.3547 445.748 81.9097Z" fill="#DFF3E9"/>
<path fill-rule="evenodd" clip-rule="evenodd" d="M336.226 140.652C336.146 149.919 337.663 163.767 330.783 163.107C323.592 162.418 316.408 162.778 311.992 162.117C307.577 161.457 305.626 156.173 305.729 143.955C305.831 131.737 307.063 131.737 315.689 131.737C324.314 131.737 336.328 128.764 336.226 140.652Z" fill="#DFF3E9"/>
<path fill-rule="evenodd" clip-rule="evenodd" d="M447.356 155.965C466.678 155.787 477.897 151.219 465.542 149.13C453.185 147.041 393.953 149.649 375.765 149.859C357.579 150.068 347.576 150.543 347.722 154.699C347.875 159.171 380.441 156.742 405.417 156.627C427.88 156.525 447.356 155.965 447.356 155.965Z" fill="#DFF3E9"/>
<path fill-rule="evenodd" clip-rule="evenodd" d="M445.748 138.91C452.799 137.851 456.16 132.957 446.067 131.855C435.976 130.754 412.419 131.647 397.247 132.171C382.075 132.695 355.035 135 351.865 135.094C348.696 135.189 342.673 140.768 355.958 141.441C369.243 142.115 415.044 138.589 426.103 138.758C437.161 138.928 442.781 139.355 445.748 138.91Z" fill="#DFF3E9"/>
<path fill-rule="evenodd" clip-rule="evenodd" d="M335.395 32.2031C335.315 41.4696 336.832 55.318 329.952 54.6581C322.761 53.9684 315.577 54.3287 311.161 53.6674C306.746 53.0075 304.795 47.7237 304.897 35.5056C305 23.2875 306.232 23.2875 314.858 23.2875C323.483 23.2875 335.497 20.3143 335.395 32.2031Z" fill="#DFF3E9"/>
<path fill-rule="evenodd" clip-rule="evenodd" d="M469.469 46.7265C491.853 46.5792 487.753 41.6892 478.296 41.0877C468.838 40.4863 400.449 40.9699 379.378 41.1432C358.31 41.3157 346.722 41.7074 346.891 45.1361C347.068 48.8257 352.467 48.1828 413.729 46.7265C436.151 46.1935 475.252 46.7265 475.252 46.7265H469.469Z" fill="#DFF3E9"/>
<path fill-rule="evenodd" clip-rule="evenodd" d="M446.614 30.4605C453.787 29.4021 457.207 24.5082 446.939 23.4058C436.672 22.3043 412.708 23.1973 397.273 23.7215C381.838 24.2456 354.33 26.5508 351.106 26.645C347.882 26.7402 341.754 32.3187 355.27 32.9922C368.784 33.6657 415.378 30.1398 426.629 30.3092C437.878 30.4785 443.596 30.9055 446.614 30.4605Z" fill="#DFF3E9"/>
<path fill-rule="evenodd" clip-rule="evenodd" d="M384.916 254.867C383.162 235.838 378.873 222.763 372.819 206.307C368.781 195.328 352.791 170.252 344.208 176.967C336.09 183.318 338.944 183.014 344.722 203.21C350.438 223.192 354.082 235.46 354.472 248.759C354.87 262.366 354.518 277.92 351.011 279.468C347.081 281.201 306.448 247.557 290.324 236.254C256.851 212.786 241.709 256.311 269.313 280.263C298.78 305.834 334.173 323.628 355.168 326.049C387.418 329.769 386.607 273.213 384.916 254.867Z" fill="#88BCDA"/>
<path fill-rule="evenodd" clip-rule="evenodd" d="M238.508 207.266C240.75 196.755 283.169 227.082 312.665 248.552C320.361 254.154 303.3 287.336 292.833 299.868C283.567 310.964 279.301 283.153 245.96 277.514C231.68 275.097 234.467 226.206 238.508 207.266Z" fill="white"/>
<path fill-rule="evenodd" clip-rule="evenodd" d="M214.629 113.628C210.834 111.049 209.195 99.489 212.333 94.799C217.662 86.8342 238.429 89.1033 240.513 98.8931C245.318 121.488 221.229 118.112 214.629 113.628ZM243.86 97.8606C241.298 85.8122 215.738 83.0202 209.18 92.8219C205.318 98.5951 207.334 112.822 212.005 115.995C220.128 121.515 249.776 125.67 243.86 97.8606Z" fill="#0B5077"/>
<path fill-rule="evenodd" clip-rule="evenodd" d="M214.628 113.628C210.833 111.049 209.194 99.4894 212.332 94.7993C217.662 86.8346 238.428 89.1037 240.512 98.8935C245.317 121.489 221.228 118.113 214.628 113.628Z" fill="white"/>
<path fill-rule="evenodd" clip-rule="evenodd" d="M234.709 116.312C229.305 56.5531 213.245 52.6229 187.72 46.37C149.43 36.9884 172.729 67.511 166.226 94.1525C159.721 120.792 167.688 136.05 168.126 150.135C168.827 172.606 152.302 195.209 135.833 211.36C114.879 231.91 178.444 240.657 201.497 232.343C224.547 224.03 231.141 223.915 226.774 207.013C222.495 190.455 217.8 183.296 217.8 171.351C217.8 165.371 224.272 162.749 230.082 153.016C235.893 143.284 235.893 129.408 234.709 116.312Z" fill="#88BCDA"/>
<path fill-rule="evenodd" clip-rule="evenodd" d="M289.5 348.973C289.809 350.004 120.004 355.287 112.224 348.973C104.443 342.659 104.59 293.268 107.973 260.088C114.787 193.271 149.98 188.872 153.615 189.871C157.251 190.87 153.255 221.013 187.184 217.647C217.418 214.65 220.51 200.434 229.856 201.188C279.735 205.215 267.04 274.096 289.5 348.973Z" fill="white"/>
<path fill-rule="evenodd" clip-rule="evenodd" d="M190.309 220.66C189.26 191.308 182.59 138.937 214.864 110.932C240.993 88.26 231.126 24.9226 169.597 25.5801C124.513 26.0616 103.279 79.0484 104.134 104.263C105.095 132.624 72.6842 165.852 72.6842 198.583C72.6842 243.793 89.6261 271.335 135.356 278.336C165.544 282.958 191.733 260.476 190.309 220.66Z" fill="#0B5077"/>
<path fill-rule="evenodd" clip-rule="evenodd" d="M209.833 113.384C199.438 109.687 195.742 116.628 194.518 120.562C191.523 130.203 196.526 135.787 205.778 135.105C211.568 134.68 217.705 116.318 212.533 114.479" fill="#87BBD9"/>
<path fill-rule="evenodd" clip-rule="evenodd" d="M353.047 216.195C355.33 207.112 359.418 186.559 360.309 183.012C361.201 179.463 364.724 175.069 356.234 172.475C347.744 169.882 345.332 171.99 343.648 176.546C341.966 181.102 337.158 202.378 335.589 208.624C334.02 214.868 328.195 233.564 331.81 235.231C335.424 236.897 346.625 240.475 349.021 233.08C351.417 225.685 353.047 216.195 353.047 216.195Z" fill="#FE6340"/>
<path fill-rule="evenodd" clip-rule="evenodd" d="M432.725 78.9613C435.998 94.1696 429.092 110.224 421.148 125.976C413.227 141.679 401.798 153.208 387.612 159.649C370.348 167.487 354.702 168.175 335.573 158.491C316.36 148.767 307.849 132.916 303.876 114.332C300.613 99.0698 303.574 85.3095 311.5 69.5946C326.864 39.1331 356.522 15.2419 397.389 35.9285C416.532 45.6184 428.751 60.4991 432.725 78.9613ZM405.379 20.5726C352.972 -5.95568 315.498 23.5746 296.345 61.5509C286.464 81.1424 282.883 98.3546 287.264 117.539C292.597 140.899 303.676 160.899 328.315 173.369C352.846 185.786 372.787 185.149 394.688 175.569C412.684 167.698 427.093 153.406 436.966 133.829C446.871 114.192 455.447 94.1592 451.056 75.0415C445.723 51.8341 429.928 32.9979 405.379 20.5726Z" fill="#FE6340"/>
<path fill-rule="evenodd" clip-rule="evenodd" d="M432.725 78.9602C428.751 60.4979 416.532 45.6173 397.389 35.9273C356.522 15.2408 326.864 39.132 311.5 69.5935C303.575 85.3084 300.613 99.0687 303.876 114.331C307.849 132.914 316.36 148.766 335.573 158.49C354.702 168.174 370.348 167.486 387.612 159.647C401.798 153.207 413.227 141.678 421.148 125.975C429.092 110.223 435.998 94.1685 432.725 78.9602Z" fill="white" fill-opacity="0.5"/>
<path fill-rule="evenodd" clip-rule="evenodd" d="M348.857 208.633C360.382 223.193 353.63 237.48 351.973 229.746C349.162 216.631 340.516 210.504 340.421 205.187C340.421 205.187 341.238 199.005 348.857 208.633Z" fill="#88BCDA"/>
<path fill-rule="evenodd" clip-rule="evenodd" d="M232.82 101.098C238.337 100.178 243.275 99.1251 243.123 101.554C243.029 103.061 244.797 104.031 236.153 105.196C228.274 106.259 219.721 108.231 213.289 112.809C212.068 113.678 212.083 113.785 211.631 112.809C211.23 111.948 210.581 110.327 213.108 108.474C218.258 104.697 226.95 102.077 232.82 101.098Z" fill="#0B5077"/>
</g>
</svg>
