<svg width="44" height="32" viewBox="0 0 44 32" fill="none" xmlns="http://www.w3.org/2000/svg">
<path d="M6 8H2C1.46957 8 0.960859 8.21071 0.585786 8.58579C0.210714 8.96086 0 9.46957 0 10C0 10.5304 0.210714 11.0391 0.585786 11.4142C0.960859 11.7893 1.46957 12 2 12H6C6.53043 12 7.03914 11.7893 7.41421 11.4142C7.78929 11.0391 8 10.5304 8 10C8 9.46957 7.78929 8.96086 7.41421 8.58579C7.03914 8.21071 6.53043 8 6 8ZM8 0H2C1.46957 0 0.960859 0.210714 0.585786 0.585787C0.210714 0.96086 0 1.46957 0 2C0 2.53043 0.210714 3.03914 0.585786 3.41421C0.960859 3.78929 1.46957 4 2 4H8C8.53043 4 9.03914 3.78929 9.41421 3.41421C9.78929 3.03914 10 2.53043 10 2C10 1.46957 9.78929 0.96086 9.41421 0.585787C9.03914 0.210714 8.53043 0 8 0Z" fill="#167DB7"/>
<rect x="12" width="32" height="32" rx="8" fill="#167DB7"/>
<path fill-rule="evenodd" clip-rule="evenodd" d="M24.8973 21.4946C25.0842 21.4946 25.2244 21.3771 25.2477 21.2127L26.93 7.2819V7.23492C26.93 7.09397 26.8599 7 26.7197 7H26.673H23.9159C23.729 7.02349 23.7057 7.09397 23.6823 7.25841L22.0234 21.1892L22 21.2362C22 21.4006 22.1402 21.4946 22.3037 21.4946H24.8973ZM27.3272 25.4178C29.5936 25.4178 31.4862 24.713 31.8601 21.6825L33.6592 7.2819C33.6592 7.14095 33.5891 7.04698 33.4255 7.04698H33.3788L30.7385 7C30.575 7.02349 30.4348 7.11746 30.4114 7.2819L28.659 21.753C28.4721 23.186 27.7712 23.28 26.7665 23.327C26.577 23.3376 26.4018 23.3434 26.2407 23.3487C26.0443 23.3552 25.8691 23.3611 25.715 23.374C25.4113 23.374 25.2945 23.4444 25.2477 23.7733L25.1075 24.901V25.0184C25.1075 25.2736 25.2898 25.2997 25.4518 25.3229L25.458 25.3238C25.4929 25.3285 25.5262 25.3332 25.5591 25.3378C25.8571 25.3797 26.128 25.4178 27.3272 25.4178Z" fill="white"/>
</svg>
