<svg width="127" height="32" viewBox="0 0 127 32" fill="none" xmlns="http://www.w3.org/2000/svg">
<path fill-rule="evenodd" clip-rule="evenodd" d="M70.1738 7.4496e-05C70.4151 7.4496e-05 70.5504 0.159062 70.5805 0.360007L70.5869 0.448354L67.4629 25.4447C66.8235 30.6443 63.6279 31.9418 59.7317 31.9981L59.4587 32C58.1644 32 57.4851 31.9696 57.0345 31.9308L55.9788 31.8047C55.7728 31.7684 55.5993 31.6881 55.5592 31.4107L55.5504 31.2793V31.1081L55.7844 29.117C55.8519 28.533 56.0866 28.3439 56.6016 28.3439C57.0823 28.3102 57.7354 28.308 58.4569 28.2737L59.1789 28.2268C60.4791 28.1173 61.3043 27.8095 61.7356 25.8394L61.7897 25.5729L64.8491 0.487092C64.8785 0.251631 64.9599 0.105794 65.1771 0.0477036L65.2975 0.0259618L70.1738 7.4496e-05ZM81.5968 6.3814C84.7218 6.3814 86.6806 7.06956 87.8474 8.23467C89.0164 9.40333 89.3606 11.0158 89.3606 13.0063C89.3606 15.1701 88.9823 18.157 88.2268 20.1117C87.0912 23.2007 84.7556 25.2969 79.2576 25.2969C76.1637 25.2969 74.2392 24.6435 73.0712 23.5108C71.8699 22.3099 71.4916 20.6278 71.4916 18.6362C71.4916 16.4393 71.9372 13.1793 72.762 11.1879C73.9661 8.30507 76.3371 6.3814 81.5968 6.3814ZM52.0219 6.38136C55.149 6.38136 57.1078 7.06821 58.2758 8.23594C59.4439 9.40329 59.7881 11.0159 59.7881 13.0072C59.7881 15.1685 59.4089 18.1551 58.6549 20.1117C57.5204 23.2007 55.1831 25.295 49.6859 25.295C46.5922 25.295 44.6666 24.6435 43.4985 23.5108C42.2972 22.3088 41.917 20.6267 41.917 18.6363C41.917 16.4392 42.3656 13.1782 43.1895 11.1865C44.3918 8.30503 46.7647 6.38136 52.0219 6.38136ZM120.549 6.41623C123.298 6.41623 125.41 6.99897 126.063 7.20495C126.264 7.26269 126.364 7.39104 126.392 7.55196L126.4 7.65211V7.8229L125.683 10.0891C125.615 10.3295 125.378 10.4306 125.139 10.4306C125.115 10.4306 125.09 10.416 125.057 10.4062L124.837 10.3739C124.241 10.2734 122.498 9.91586 120.868 9.91586C120.009 9.91586 118.966 10.0192 118.314 10.5349C117.922 10.8648 117.698 11.3002 117.648 11.7942L117.637 12.0457C117.637 13.4859 119.243 13.555 120.822 13.8654C122.197 14.0709 123.595 14.4134 124.488 15.3062C125.175 15.958 125.588 16.9531 125.588 18.4646C125.588 20.1455 125.072 21.8618 123.87 23.1318C122.357 24.7119 119.952 25.2948 117.272 25.2948C114.316 25.2948 111.636 24.5742 111.052 24.2988L110.946 24.2416C110.847 24.189 110.741 24.109 110.741 23.8878C110.741 23.8189 110.741 23.7656 110.752 23.697L110.776 23.5786L111.466 21.3815C111.567 21.0739 111.704 20.9699 111.911 20.9699C111.979 20.9699 112.015 20.9699 112.083 21.004L112.887 21.2056C113.865 21.4433 115.509 21.7937 117.03 21.7937C117.993 21.7937 118.887 21.6223 119.471 21.107C119.987 20.6951 120.193 20.1117 120.193 19.5273C120.193 18.8075 119.952 18.4296 119.471 18.1901C119.127 18.0181 118.696 17.916 118.19 17.8215L116.675 17.5454C115.553 17.326 114.282 16.9925 113.391 16.129C112.737 15.4425 112.327 14.5169 112.327 13.0737C112.327 11.5633 112.743 9.95106 113.703 8.78464C115.423 6.72389 118.351 6.41623 120.549 6.41623ZM98.8333 0C99.1036 0 99.3083 0.149149 99.3552 0.416505L99.3654 0.538233V0.63992L98.7885 5.00836L98.5299 7.01752L98.8889 6.91814C99.5777 6.73926 101.168 6.38151 102.87 6.38151C105.137 6.38151 106.786 6.82886 107.852 7.85876C108.882 8.85273 109.365 10.4315 109.365 12.8001C109.365 14.9627 109.021 17.4348 108.404 19.5287C107.232 23.4072 104.862 25.294 99.3641 25.294C96.6819 25.294 94.3466 24.9154 93.0412 24.4701C91.7004 24.024 91.3587 23.4392 91.3587 22.5106C91.3587 22.2135 91.3892 21.8839 91.44 21.5041L91.53 20.8946L93.9531 0.855586C93.9836 0.427979 94.1494 0.153264 94.5243 0.0484443L94.6748 0.0171341L98.8333 0ZM37.9284 0.0629491C40.4018 0.0629491 41.9493 0.511229 42.4632 0.649046C42.7048 0.717955 42.7723 0.892462 42.7723 1.09788C42.7723 1.12135 42.7723 1.16286 42.7624 1.20812L42.7389 1.27705L42.0868 3.62404C42.0275 3.88935 41.9424 4.04753 41.7462 4.08731L41.6384 4.09728H41.5008C41.0885 3.91104 40.0228 3.8222 39.0963 3.8222C37.5616 3.8222 36.9253 4.1624 36.6907 5.43344L36.6569 5.64195L36.3821 7.82208H40.7442C41.0173 7.82208 41.1569 7.97793 41.1875 8.2003L41.194 8.29941V8.36869L40.8668 11.074C40.837 11.3429 40.6618 11.5033 40.4114 11.5392L40.2997 11.5469H35.9337L34.0923 24.4756C34.0315 24.8299 33.7731 24.934 33.5 24.9528L33.3972 24.9561H29.3327C29.0941 24.9561 28.8868 24.9556 28.8358 24.6987L28.8243 24.5898L28.9212 23.8992L28.9505 23.6525H28.9553L30.6421 11.6242L31.3646 5.52052C31.8111 1.88195 33.9064 0.0629491 37.9284 0.0629491ZM20.702 6.53112C23.1776 6.53112 24.9809 6.87436 26.0457 7.90296C26.6114 8.5015 26.9622 9.32978 27.0167 10.4423L27.0242 10.7867C27.0242 11.1645 27.0026 11.5312 26.9725 11.8934L26.8696 12.9728L25.4446 24.463C25.4146 24.7331 25.2265 24.9081 24.973 24.9477L24.8606 24.9562H20.668C20.3975 24.9562 20.1852 24.8565 20.1363 24.6483L20.1257 24.5524V24.4843L21.4901 13.3279C21.5421 12.967 21.5876 12.6059 21.6071 12.2601L21.6172 11.8853C21.6172 11.3359 21.5376 10.9204 21.2977 10.6468C20.9535 10.2354 20.4281 10.0607 19.6023 10.0607C18.581 10.0607 17.4678 10.2297 16.7679 10.3585L16.063 10.5018L14.346 24.463C14.3144 24.7331 14.1267 24.9081 13.8497 24.9477L13.7257 24.9562H9.5344C9.26456 24.9562 9.011 24.8565 8.95183 24.6483L8.93889 24.5524V24.4843L10.8345 9.51691C11.0064 8.21305 11.9396 7.80016 14.0009 7.32077C15.7882 6.909 18.5394 6.53112 20.702 6.53112ZM3.27586 0.186314H8.27225C8.47633 0.186314 8.54644 0.262802 8.5623 0.435832L8.56609 0.599767L5.66237 24.4631C5.63252 24.7331 5.45064 24.9081 5.19742 24.9477L5.08476 24.9562H0.51571C0.275241 24.9562 0.0607523 24.8534 0.0108874 24.6444L0 24.5484L2.87556 0.602747C2.9046 0.361892 2.95105 0.223702 3.17068 0.192918L3.27586 0.186314ZM101.254 9.98618C100.24 9.98618 99.0041 10.2281 98.4238 10.3554L98.0929 10.4317L96.7522 21.4507L97.1497 21.5292C97.6115 21.6104 98.4305 21.7254 99.3641 21.7254C101.84 21.7254 102.87 21.0388 103.523 17.4013C103.797 15.9237 104.004 14.3448 104.004 12.8351C104.004 11.8402 103.866 11.1543 103.558 10.7082C103.11 10.1234 102.388 9.98618 101.254 9.98618ZM81.1478 9.95218C78.7321 9.95218 77.9414 11.0015 77.4882 13.2563L77.4373 13.5218C77.126 15.2045 76.853 17.0915 76.853 18.8075C76.853 19.8719 76.9897 20.6278 77.5043 21.107C77.9519 21.5201 78.6392 21.7253 79.7042 21.7253C82.2831 21.7253 83.0043 20.5237 83.4499 17.9493C83.7588 16.3026 84.0001 14.5514 84.0001 12.9039C84.0001 11.8732 83.8627 11.1544 83.4159 10.6722C82.969 10.193 82.2831 9.95218 81.1478 9.95218ZM51.5746 9.95232C49.066 9.95232 48.3101 11.0854 47.8626 13.522C47.5528 15.2045 47.2796 17.0903 47.2796 18.8077C47.2796 19.8718 47.418 20.6267 47.932 21.107C48.3774 21.5189 49.066 21.7253 50.1324 21.7253C52.6164 21.7253 53.376 20.609 53.8285 18.221L53.8776 17.9504C54.1865 16.3016 54.4274 14.5513 54.4274 12.9039C54.4274 11.8732 54.2881 11.1534 53.8444 10.6721C53.3967 10.1916 52.7084 9.95232 51.5746 9.95232Z" fill="#167DB7"/>
</svg>
